{
	"asset":{
		"generator":"Khronos glTF Blender I/O v4.2.80",
		"version":"2.0"
	},
	"scene":0,
	"scenes":[
		{
			"name":"Scene",
			"nodes":[
				0
			]
		}
	],
	"nodes":[
		{
			"mesh":0,
			"name":"Bone"
		}
	],
	"meshes":[
		{
			"name":"Bone",
			"primitives":[
				{
					"attributes":{
						"POSITION":0,
						"NORMAL":1,
						"TEXCOORD_0":2
					},
					"indices":3
				}
			]
		}
	],
	"accessors":[
		{
			"bufferView":0,
			"componentType":5126,
			"count":2800,
			"max":[
				0.8406995534896851,
				2.901127576828003,
				1.2942742109298706
			],
			"min":[
				-0.8406995534896851,
				-2.901127576828003,
				-1.2942742109298706
			],
			"type":"VEC3"
		},
		{
			"bufferView":1,
			"componentType":5126,
			"count":2800,
			"type":"VEC3"
		},
		{
			"bufferView":2,
			"componentType":5126,
			"count":2800,
			"type":"VEC2"
		},
		{
			"bufferView":3,
			"componentType":5123,
			"count":4368,
			"type":"SCALAR"
		}
	],
	"bufferViews":[
		{
			"buffer":0,
			"byteLength":33600,
			"byteOffset":0,
			"target":34962
		},
		{
			"buffer":0,
			"byteLength":33600,
			"byteOffset":33600,
			"target":34962
		},
		{
			"buffer":0,
			"byteLength":22400,
			"byteOffset":67200,
			"target":34962
		},
		{
			"buffer":0,
			"byteLength":8736,
			"byteOffset":89600,
			"target":34963
		}
	],
	"buffers":[
		{
			"byteLength":98336,
			"uri":"bone.bin"
		}
	]
}
