{
	"asset":{
		"generator":"Khronos glTF Blender I/O v4.2.80",
		"version":"2.0"
	},
	"scene":0,
	"scenes":[
		{
			"name":"Scene",
			"nodes":[
				0
			]
		}
	],
	"nodes":[
		{
			"mesh":0,
			"name":"Circle"
		}
	],
	"meshes":[
		{
			"name":"Circle",
			"primitives":[
				{
					"attributes":{
						"POSITION":0,
						"NORMAL":1,
						"TEXCOORD_0":2
					},
					"indices":3
				}
			]
		}
	],
	"accessors":[
		{
			"bufferView":0,
			"componentType":5126,
			"count":320,
			"max":[
				0.1682782769203186,
				1.315627098083496,
				0.16223567724227905
			],
			"min":[
				-0.1682782769203186,
				0.2624683380126953,
				-0.16223567724227905
			],
			"type":"VEC3"
		},
		{
			"bufferView":1,
			"componentType":5126,
			"count":320,
			"type":"VEC3"
		},
		{
			"bufferView":2,
			"componentType":5126,
			"count":320,
			"type":"VEC2"
		},
		{
			"bufferView":3,
			"componentType":5123,
			"count":384,
			"type":"SCALAR"
		}
	],
	"bufferViews":[
		{
			"buffer":0,
			"byteLength":3840,
			"byteOffset":0,
			"target":34962
		},
		{
			"buffer":0,
			"byteLength":3840,
			"byteOffset":3840,
			"target":34962
		},
		{
			"buffer":0,
			"byteLength":2560,
			"byteOffset":7680,
			"target":34962
		},
		{
			"buffer":0,
			"byteLength":768,
			"byteOffset":10240,
			"target":34963
		}
	],
	"buffers":[
		{
			"byteLength":11008,
			"uri":"bone.bin"
		}
	]
}
