{
	"asset":{
		"generator":"Khronos glTF Blender I/O v4.2.80",
		"version":"2.0"
	},
	"scene":0,
	"scenes":[
		{
			"name":"Scene",
			"nodes":[
				12
			]
		}
	],
	"nodes":[
		{
			"name":"Bone.004",
			"rotation":[
				-8.987376531877089e-08,
				-7.207548691212651e-08,
				-0.6045947670936584,
				0.7965332269668579
			],
			"scale":[
				0.9999999403953552,
				0.9999999403953552,
				1
			],
			"translation":[
				5.443425266093982e-09,
				1.6397335529327393,
				2.2642923092064393e-09
			]
		},
		{
			"children":[
				0
			],
			"name":"Bone.001",
			"rotation":[
				2.7288217907539547e-08,
				2.8006208907527252e-08,
				-0.6978663206100464,
				0.7162280678749084
			],
			"translation":[
				0,
				1,
				0
			]
		},
		{
			"children":[
				1
			],
			"name":"Bone",
			"translation":[
				0.008629053831100464,
				-0.48075056076049805,
				0.02566540241241455
			]
		},
		{
			"name":"Bone.007",
			"rotation":[
				0.0892203152179718,
				-0.0010825631907209754,
				0.003751239040866494,
				0.9960042834281921
			],
			"translation":[
				2.7939677238464355e-09,
				0.6511357426643372,
				-3.166496753692627e-08
			]
		},
		{
			"children":[
				3
			],
			"name":"Bone.006",
			"rotation":[
				-0.2895351052284241,
				-0.02438204549252987,
				-0.036971673369407654,
				0.9561423063278198
			],
			"scale":[
				1,
				0.9999999403953552,
				1
			],
			"translation":[
				2.788745234738599e-09,
				0.9578663110733032,
				-7.0012284858478324e-09
			]
		},
		{
			"children":[
				4
			],
			"name":"Bone.005",
			"rotation":[
				-0.6782487630844116,
				-0.19994689524173737,
				-0.6782485842704773,
				0.19994693994522095
			],
			"scale":[
				0.9999999403953552,
				1,
				0.9999998807907104
			],
			"translation":[
				0.008629053831100464,
				-0.48075056076049805,
				0.02566540241241455
			]
		},
		{
			"name":"Bone.008",
			"rotation":[
				-3.147648186541119e-08,
				-8.221558545074004e-09,
				0.6045947670936584,
				0.7965332269668579
			],
			"scale":[
				0.9999999403953552,
				0.9999999403953552,
				1
			],
			"translation":[
				2.007155552874451e-09,
				1.6397335529327393,
				1.0868107525041637e-09
			]
		},
		{
			"children":[
				6
			],
			"name":"Bone.002",
			"rotation":[
				2.795678355482778e-08,
				-2.6006309994386356e-08,
				0.6978663206100464,
				0.7162280678749084
			],
			"scale":[
				1.0000001192092896,
				1.0000001192092896,
				1.0000001192092896
			],
			"translation":[
				0.008629053831100464,
				0.519249439239502,
				0.02566540241241455
			]
		},
		{
			"name":"Bone.011",
			"rotation":[
				0.08890410512685776,
				-2.7718633077711274e-07,
				-0.008390359580516815,
				0.9960048794746399
			],
			"scale":[
				1,
				0.9999999403953552,
				1
			],
			"translation":[
				0,
				0.6511356830596924,
				1.1455267667770386e-07
			]
		},
		{
			"children":[
				8
			],
			"name":"Bone.010",
			"rotation":[
				-0.2884986102581024,
				1.6699389959740074e-07,
				0.04434049502015114,
				0.9564530849456787
			],
			"scale":[
				0.9999999403953552,
				1.0000001192092896,
				1
			],
			"translation":[
				2.7135271807310346e-09,
				0.9578663110733032,
				5.311194684054499e-08
			]
		},
		{
			"children":[
				9
			],
			"name":"Bone.009",
			"rotation":[
				-0.6782487630844116,
				0.19994692504405975,
				0.6782484650611877,
				0.19994696974754333
			],
			"scale":[
				0.9999998807907104,
				0.9999998211860657,
				0.9999998807907104
			],
			"translation":[
				0.008629053831100464,
				-0.48075056076049805,
				0.02566540241241455
			]
		},
		{
			"mesh":0,
			"name":"Cube",
			"skin":0
		},
		{
			"children":[
				11,
				2,
				5,
				7,
				10
			],
			"name":"Armature.001"
		}
	],
	"animations":[
		{
			"channels":[
				{
					"sampler":0,
					"target":{
						"node":2,
						"path":"translation"
					}
				},
				{
					"sampler":1,
					"target":{
						"node":2,
						"path":"rotation"
					}
				},
				{
					"sampler":2,
					"target":{
						"node":2,
						"path":"scale"
					}
				},
				{
					"sampler":3,
					"target":{
						"node":1,
						"path":"translation"
					}
				},
				{
					"sampler":4,
					"target":{
						"node":1,
						"path":"rotation"
					}
				},
				{
					"sampler":5,
					"target":{
						"node":1,
						"path":"scale"
					}
				},
				{
					"sampler":6,
					"target":{
						"node":0,
						"path":"translation"
					}
				},
				{
					"sampler":7,
					"target":{
						"node":0,
						"path":"rotation"
					}
				},
				{
					"sampler":8,
					"target":{
						"node":0,
						"path":"scale"
					}
				},
				{
					"sampler":9,
					"target":{
						"node":5,
						"path":"translation"
					}
				},
				{
					"sampler":10,
					"target":{
						"node":5,
						"path":"rotation"
					}
				},
				{
					"sampler":11,
					"target":{
						"node":5,
						"path":"scale"
					}
				},
				{
					"sampler":12,
					"target":{
						"node":4,
						"path":"translation"
					}
				},
				{
					"sampler":13,
					"target":{
						"node":4,
						"path":"rotation"
					}
				},
				{
					"sampler":14,
					"target":{
						"node":4,
						"path":"scale"
					}
				},
				{
					"sampler":15,
					"target":{
						"node":3,
						"path":"translation"
					}
				},
				{
					"sampler":16,
					"target":{
						"node":3,
						"path":"rotation"
					}
				},
				{
					"sampler":17,
					"target":{
						"node":3,
						"path":"scale"
					}
				},
				{
					"sampler":18,
					"target":{
						"node":7,
						"path":"translation"
					}
				},
				{
					"sampler":19,
					"target":{
						"node":7,
						"path":"rotation"
					}
				},
				{
					"sampler":20,
					"target":{
						"node":7,
						"path":"scale"
					}
				},
				{
					"sampler":21,
					"target":{
						"node":6,
						"path":"translation"
					}
				},
				{
					"sampler":22,
					"target":{
						"node":6,
						"path":"rotation"
					}
				},
				{
					"sampler":23,
					"target":{
						"node":6,
						"path":"scale"
					}
				},
				{
					"sampler":24,
					"target":{
						"node":10,
						"path":"translation"
					}
				},
				{
					"sampler":25,
					"target":{
						"node":10,
						"path":"rotation"
					}
				},
				{
					"sampler":26,
					"target":{
						"node":10,
						"path":"scale"
					}
				},
				{
					"sampler":27,
					"target":{
						"node":9,
						"path":"translation"
					}
				},
				{
					"sampler":28,
					"target":{
						"node":9,
						"path":"rotation"
					}
				},
				{
					"sampler":29,
					"target":{
						"node":9,
						"path":"scale"
					}
				},
				{
					"sampler":30,
					"target":{
						"node":8,
						"path":"translation"
					}
				},
				{
					"sampler":31,
					"target":{
						"node":8,
						"path":"rotation"
					}
				},
				{
					"sampler":32,
					"target":{
						"node":8,
						"path":"scale"
					}
				}
			],
			"name":"Armature.001Action.001",
			"samplers":[
				{
					"input":7,
					"interpolation":"STEP",
					"output":8
				},
				{
					"input":7,
					"interpolation":"STEP",
					"output":9
				},
				{
					"input":7,
					"interpolation":"STEP",
					"output":10
				},
				{
					"input":7,
					"interpolation":"STEP",
					"output":11
				},
				{
					"input":12,
					"interpolation":"LINEAR",
					"output":13
				},
				{
					"input":7,
					"interpolation":"STEP",
					"output":14
				},
				{
					"input":7,
					"interpolation":"STEP",
					"output":15
				},
				{
					"input":12,
					"interpolation":"LINEAR",
					"output":16
				},
				{
					"input":7,
					"interpolation":"STEP",
					"output":17
				},
				{
					"input":7,
					"interpolation":"STEP",
					"output":18
				},
				{
					"input":12,
					"interpolation":"LINEAR",
					"output":19
				},
				{
					"input":7,
					"interpolation":"STEP",
					"output":20
				},
				{
					"input":7,
					"interpolation":"STEP",
					"output":21
				},
				{
					"input":12,
					"interpolation":"LINEAR",
					"output":22
				},
				{
					"input":7,
					"interpolation":"STEP",
					"output":23
				},
				{
					"input":7,
					"interpolation":"STEP",
					"output":24
				},
				{
					"input":12,
					"interpolation":"LINEAR",
					"output":25
				},
				{
					"input":7,
					"interpolation":"STEP",
					"output":26
				},
				{
					"input":7,
					"interpolation":"STEP",
					"output":27
				},
				{
					"input":12,
					"interpolation":"LINEAR",
					"output":28
				},
				{
					"input":7,
					"interpolation":"STEP",
					"output":29
				},
				{
					"input":7,
					"interpolation":"STEP",
					"output":30
				},
				{
					"input":7,
					"interpolation":"STEP",
					"output":31
				},
				{
					"input":7,
					"interpolation":"STEP",
					"output":32
				},
				{
					"input":7,
					"interpolation":"STEP",
					"output":33
				},
				{
					"input":7,
					"interpolation":"STEP",
					"output":34
				},
				{
					"input":7,
					"interpolation":"STEP",
					"output":35
				},
				{
					"input":7,
					"interpolation":"STEP",
					"output":36
				},
				{
					"input":12,
					"interpolation":"LINEAR",
					"output":37
				},
				{
					"input":7,
					"interpolation":"STEP",
					"output":38
				},
				{
					"input":7,
					"interpolation":"STEP",
					"output":39
				},
				{
					"input":7,
					"interpolation":"STEP",
					"output":40
				},
				{
					"input":7,
					"interpolation":"STEP",
					"output":41
				}
			]
		}
	],
	"materials":[
		{
			"doubleSided":true,
			"name":"Material",
			"pbrMetallicRoughness":{
				"baseColorFactor":[
					0.800000011920929,
					0.800000011920929,
					0.800000011920929,
					1
				],
				"metallicFactor":0,
				"roughnessFactor":0.5
			}
		}
	],
	"meshes":[
		{
			"name":"Cube",
			"primitives":[
				{
					"attributes":{
						"POSITION":0,
						"NORMAL":1,
						"TEXCOORD_0":2,
						"JOINTS_0":3,
						"WEIGHTS_0":4
					},
					"indices":5,
					"material":0
				}
			]
		}
	],
	"skins":[
		{
			"inverseBindMatrices":6,
			"joints":[
				2,
				1,
				0,
				5,
				4,
				3,
				7,
				6,
				10,
				9,
				8
			],
			"name":"Armature.001"
		}
	],
	"accessors":[
		{
			"bufferView":0,
			"componentType":5126,
			"count":240,
			"max":[
				2.177621841430664,
				1.1175498962402344,
				0.7855310440063477
			],
			"min":[
				-2.177621841430664,
				-2.93058443069458,
				-0.7767651081085205
			],
			"type":"VEC3"
		},
		{
			"bufferView":1,
			"componentType":5126,
			"count":240,
			"type":"VEC3"
		},
		{
			"bufferView":2,
			"componentType":5126,
			"count":240,
			"type":"VEC2"
		},
		{
			"bufferView":3,
			"componentType":5121,
			"count":240,
			"type":"VEC4"
		},
		{
			"bufferView":4,
			"componentType":5126,
			"count":240,
			"type":"VEC4"
		},
		{
			"bufferView":5,
			"componentType":5123,
			"count":384,
			"type":"SCALAR"
		},
		{
			"bufferView":6,
			"componentType":5126,
			"count":11,
			"type":"MAT4"
		},
		{
			"bufferView":7,
			"componentType":5126,
			"count":2,
			"max":[
				2.5
			],
			"min":[
				0
			],
			"type":"SCALAR"
		},
		{
			"bufferView":8,
			"componentType":5126,
			"count":2,
			"type":"VEC3"
		},
		{
			"bufferView":9,
			"componentType":5126,
			"count":2,
			"type":"VEC4"
		},
		{
			"bufferView":10,
			"componentType":5126,
			"count":2,
			"type":"VEC3"
		},
		{
			"bufferView":11,
			"componentType":5126,
			"count":2,
			"type":"VEC3"
		},
		{
			"bufferView":12,
			"componentType":5126,
			"count":61,
			"max":[
				2.5
			],
			"min":[
				0
			],
			"type":"SCALAR"
		},
		{
			"bufferView":13,
			"componentType":5126,
			"count":61,
			"type":"VEC4"
		},
		{
			"bufferView":14,
			"componentType":5126,
			"count":2,
			"type":"VEC3"
		},
		{
			"bufferView":15,
			"componentType":5126,
			"count":2,
			"type":"VEC3"
		},
		{
			"bufferView":16,
			"componentType":5126,
			"count":61,
			"type":"VEC4"
		},
		{
			"bufferView":17,
			"componentType":5126,
			"count":2,
			"type":"VEC3"
		},
		{
			"bufferView":18,
			"componentType":5126,
			"count":2,
			"type":"VEC3"
		},
		{
			"bufferView":19,
			"componentType":5126,
			"count":61,
			"type":"VEC4"
		},
		{
			"bufferView":20,
			"componentType":5126,
			"count":2,
			"type":"VEC3"
		},
		{
			"bufferView":21,
			"componentType":5126,
			"count":2,
			"type":"VEC3"
		},
		{
			"bufferView":22,
			"componentType":5126,
			"count":61,
			"type":"VEC4"
		},
		{
			"bufferView":23,
			"componentType":5126,
			"count":2,
			"type":"VEC3"
		},
		{
			"bufferView":24,
			"componentType":5126,
			"count":2,
			"type":"VEC3"
		},
		{
			"bufferView":25,
			"componentType":5126,
			"count":61,
			"type":"VEC4"
		},
		{
			"bufferView":26,
			"componentType":5126,
			"count":2,
			"type":"VEC3"
		},
		{
			"bufferView":27,
			"componentType":5126,
			"count":2,
			"type":"VEC3"
		},
		{
			"bufferView":28,
			"componentType":5126,
			"count":61,
			"type":"VEC4"
		},
		{
			"bufferView":29,
			"componentType":5126,
			"count":2,
			"type":"VEC3"
		},
		{
			"bufferView":30,
			"componentType":5126,
			"count":2,
			"type":"VEC3"
		},
		{
			"bufferView":31,
			"componentType":5126,
			"count":2,
			"type":"VEC4"
		},
		{
			"bufferView":32,
			"componentType":5126,
			"count":2,
			"type":"VEC3"
		},
		{
			"bufferView":33,
			"componentType":5126,
			"count":2,
			"type":"VEC3"
		},
		{
			"bufferView":34,
			"componentType":5126,
			"count":2,
			"type":"VEC4"
		},
		{
			"bufferView":35,
			"componentType":5126,
			"count":2,
			"type":"VEC3"
		},
		{
			"bufferView":36,
			"componentType":5126,
			"count":2,
			"type":"VEC3"
		},
		{
			"bufferView":37,
			"componentType":5126,
			"count":61,
			"type":"VEC4"
		},
		{
			"bufferView":38,
			"componentType":5126,
			"count":2,
			"type":"VEC3"
		},
		{
			"bufferView":39,
			"componentType":5126,
			"count":2,
			"type":"VEC3"
		},
		{
			"bufferView":40,
			"componentType":5126,
			"count":2,
			"type":"VEC4"
		},
		{
			"bufferView":41,
			"componentType":5126,
			"count":2,
			"type":"VEC3"
		}
	],
	"bufferViews":[
		{
			"buffer":0,
			"byteLength":2880,
			"byteOffset":0,
			"target":34962
		},
		{
			"buffer":0,
			"byteLength":2880,
			"byteOffset":2880,
			"target":34962
		},
		{
			"buffer":0,
			"byteLength":1920,
			"byteOffset":5760,
			"target":34962
		},
		{
			"buffer":0,
			"byteLength":960,
			"byteOffset":7680,
			"target":34962
		},
		{
			"buffer":0,
			"byteLength":3840,
			"byteOffset":8640,
			"target":34962
		},
		{
			"buffer":0,
			"byteLength":768,
			"byteOffset":12480,
			"target":34963
		},
		{
			"buffer":0,
			"byteLength":704,
			"byteOffset":13248
		},
		{
			"buffer":0,
			"byteLength":8,
			"byteOffset":13952
		},
		{
			"buffer":0,
			"byteLength":24,
			"byteOffset":13960
		},
		{
			"buffer":0,
			"byteLength":32,
			"byteOffset":13984
		},
		{
			"buffer":0,
			"byteLength":24,
			"byteOffset":14016
		},
		{
			"buffer":0,
			"byteLength":24,
			"byteOffset":14040
		},
		{
			"buffer":0,
			"byteLength":244,
			"byteOffset":14064
		},
		{
			"buffer":0,
			"byteLength":976,
			"byteOffset":14308
		},
		{
			"buffer":0,
			"byteLength":24,
			"byteOffset":15284
		},
		{
			"buffer":0,
			"byteLength":24,
			"byteOffset":15308
		},
		{
			"buffer":0,
			"byteLength":976,
			"byteOffset":15332
		},
		{
			"buffer":0,
			"byteLength":24,
			"byteOffset":16308
		},
		{
			"buffer":0,
			"byteLength":24,
			"byteOffset":16332
		},
		{
			"buffer":0,
			"byteLength":976,
			"byteOffset":16356
		},
		{
			"buffer":0,
			"byteLength":24,
			"byteOffset":17332
		},
		{
			"buffer":0,
			"byteLength":24,
			"byteOffset":17356
		},
		{
			"buffer":0,
			"byteLength":976,
			"byteOffset":17380
		},
		{
			"buffer":0,
			"byteLength":24,
			"byteOffset":18356
		},
		{
			"buffer":0,
			"byteLength":24,
			"byteOffset":18380
		},
		{
			"buffer":0,
			"byteLength":976,
			"byteOffset":18404
		},
		{
			"buffer":0,
			"byteLength":24,
			"byteOffset":19380
		},
		{
			"buffer":0,
			"byteLength":24,
			"byteOffset":19404
		},
		{
			"buffer":0,
			"byteLength":976,
			"byteOffset":19428
		},
		{
			"buffer":0,
			"byteLength":24,
			"byteOffset":20404
		},
		{
			"buffer":0,
			"byteLength":24,
			"byteOffset":20428
		},
		{
			"buffer":0,
			"byteLength":32,
			"byteOffset":20452
		},
		{
			"buffer":0,
			"byteLength":24,
			"byteOffset":20484
		},
		{
			"buffer":0,
			"byteLength":24,
			"byteOffset":20508
		},
		{
			"buffer":0,
			"byteLength":32,
			"byteOffset":20532
		},
		{
			"buffer":0,
			"byteLength":24,
			"byteOffset":20564
		},
		{
			"buffer":0,
			"byteLength":24,
			"byteOffset":20588
		},
		{
			"buffer":0,
			"byteLength":976,
			"byteOffset":20612
		},
		{
			"buffer":0,
			"byteLength":24,
			"byteOffset":21588
		},
		{
			"buffer":0,
			"byteLength":24,
			"byteOffset":21612
		},
		{
			"buffer":0,
			"byteLength":32,
			"byteOffset":21636
		},
		{
			"buffer":0,
			"byteLength":24,
			"byteOffset":21668
		}
	],
	"buffers":[
		{
			"byteLength":21692,
			"uri":"cube_animation.bin"
		}
	]
}
