{
	"asset":{
		"generator":"Khronos glTF Blender I/O v4.2.80",
		"version":"2.0"
	},
	"scene":1,
	"scenes":[
		{
			"name":"Ambient",
			"nodes":[
				0,
				1,
				2
			]
		},
		{
			"name":"Arrows",
			"nodes":[
				3
			]
		}
	],
	"nodes":[
		{
			"mesh":0,
			"name":"Plane",
			"scale":[
				16.40563201904297,
				16.40563201904297,
				16.40563201904297
			]
		},
		{
			"mesh":1,
			"name":"Cube",
			"scale":[
				0.46117106080055237,
				3.689368486404419,
				0.46117106080055237
			],
			"translation":[
				2.1335132122039795,
				2.84468412399292,
				-2.1335132122039795
			]
		},
		{
			"mesh":2,
			"name":"Cube.002",
			"translation":[
				2.126666307449341,
				1.2305456399917603,
				9.816322326660156
			]
		},
		{
			"mesh":3,
			"name":"Sphere",
			"scale":[
				0.14848697185516357,
				0.14848697185516357,
				0.14848697185516357
			]
		}
	],
	"meshes":[
		{
			"name":"Plane.002",
			"primitives":[
				{
					"attributes":{
						"POSITION":0,
						"NORMAL":1,
						"TEXCOORD_0":2
					},
					"indices":3
				}
			]
		},
		{
			"name":"Cube.001",
			"primitives":[
				{
					"attributes":{
						"POSITION":4,
						"NORMAL":5,
						"TEXCOORD_0":6
					},
					"indices":7
				}
			]
		},
		{
			"name":"Cube.003",
			"primitives":[
				{
					"attributes":{
						"POSITION":8,
						"NORMAL":9,
						"TEXCOORD_0":10
					},
					"indices":11
				}
			]
		},
		{
			"name":"Sphere.001",
			"primitives":[
				{
					"attributes":{
						"POSITION":12,
						"NORMAL":13,
						"TEXCOORD_0":14
					},
					"indices":15
				}
			]
		}
	],
	"accessors":[
		{
			"bufferView":0,
			"componentType":5126,
			"count":4,
			"max":[
				1,
				0,
				1
			],
			"min":[
				-1,
				0,
				-1
			],
			"type":"VEC3"
		},
		{
			"bufferView":1,
			"componentType":5126,
			"count":4,
			"type":"VEC3"
		},
		{
			"bufferView":2,
			"componentType":5126,
			"count":4,
			"type":"VEC2"
		},
		{
			"bufferView":3,
			"componentType":5123,
			"count":6,
			"type":"SCALAR"
		},
		{
			"bufferView":4,
			"componentType":5126,
			"count":96,
			"max":[
				2.30171537399292,
				0.6297613382339478,
				11.554306030273438
			],
			"min":[
				-11.554306030273438,
				-0.7674403190612793,
				-2.30171537399292
			],
			"type":"VEC3"
		},
		{
			"bufferView":5,
			"componentType":5126,
			"count":96,
			"type":"VEC3"
		},
		{
			"bufferView":6,
			"componentType":5126,
			"count":96,
			"type":"VEC2"
		},
		{
			"bufferView":7,
			"componentType":5123,
			"count":144,
			"type":"SCALAR"
		},
		{
			"bufferView":8,
			"componentType":5126,
			"count":24,
			"max":[
				1,
				1,
				1
			],
			"min":[
				-1,
				-1,
				-1
			],
			"type":"VEC3"
		},
		{
			"bufferView":9,
			"componentType":5126,
			"count":24,
			"type":"VEC3"
		},
		{
			"bufferView":10,
			"componentType":5126,
			"count":24,
			"type":"VEC2"
		},
		{
			"bufferView":11,
			"componentType":5123,
			"count":36,
			"type":"SCALAR"
		},
		{
			"bufferView":12,
			"componentType":5126,
			"count":3520,
			"max":[
				13.194172859191895,
				13.194172859191895,
				13.194172859191895
			],
			"min":[
				-0.9999990463256836,
				-1,
				-1
			],
			"type":"VEC3"
		},
		{
			"bufferView":13,
			"componentType":5126,
			"count":3520,
			"type":"VEC3"
		},
		{
			"bufferView":14,
			"componentType":5126,
			"count":3520,
			"type":"VEC2"
		},
		{
			"bufferView":15,
			"componentType":5123,
			"count":5166,
			"type":"SCALAR"
		}
	],
	"bufferViews":[
		{
			"buffer":0,
			"byteLength":48,
			"byteOffset":0,
			"target":34962
		},
		{
			"buffer":0,
			"byteLength":48,
			"byteOffset":48,
			"target":34962
		},
		{
			"buffer":0,
			"byteLength":32,
			"byteOffset":96,
			"target":34962
		},
		{
			"buffer":0,
			"byteLength":12,
			"byteOffset":128,
			"target":34963
		},
		{
			"buffer":0,
			"byteLength":1152,
			"byteOffset":140,
			"target":34962
		},
		{
			"buffer":0,
			"byteLength":1152,
			"byteOffset":1292,
			"target":34962
		},
		{
			"buffer":0,
			"byteLength":768,
			"byteOffset":2444,
			"target":34962
		},
		{
			"buffer":0,
			"byteLength":288,
			"byteOffset":3212,
			"target":34963
		},
		{
			"buffer":0,
			"byteLength":288,
			"byteOffset":3500,
			"target":34962
		},
		{
			"buffer":0,
			"byteLength":288,
			"byteOffset":3788,
			"target":34962
		},
		{
			"buffer":0,
			"byteLength":192,
			"byteOffset":4076,
			"target":34962
		},
		{
			"buffer":0,
			"byteLength":72,
			"byteOffset":4268,
			"target":34963
		},
		{
			"buffer":0,
			"byteLength":42240,
			"byteOffset":4340,
			"target":34962
		},
		{
			"buffer":0,
			"byteLength":42240,
			"byteOffset":46580,
			"target":34962
		},
		{
			"buffer":0,
			"byteLength":28160,
			"byteOffset":88820,
			"target":34962
		},
		{
			"buffer":0,
			"byteLength":10332,
			"byteOffset":116980,
			"target":34963
		}
	],
	"buffers":[
		{
			"byteLength":127312,
			"uri":"scene.bin"
		}
	]
}
